<mxfile host="app.diagrams.net" modified="2021-09-24T20:47:57.782Z" agent="5.0 (Windows NT 10.0; Win64; x64) AppleWebKit/537.36 (KHTML, like Gecko) Chrome/94.0.4606.61 Safari/537.36" etag="y8OpGFZyrfHlvL1j6pd4" version="15.3.0" type="github">
  <diagram id="C5RBs43oDa-KdzZeNtuy" name="Page-1">
    <mxGraphModel dx="1038" dy="547" grid="1" gridSize="10" guides="1" tooltips="1" connect="1" arrows="1" fold="1" page="1" pageScale="1" pageWidth="827" pageHeight="1169" math="0" shadow="0">
      <root>
        <mxCell id="WIyWlLk6GJQsqaUBKTNV-0" />
        <mxCell id="WIyWlLk6GJQsqaUBKTNV-1" parent="WIyWlLk6GJQsqaUBKTNV-0" />
        <mxCell id="H3WDgLnWywmLZub_K2yU-9" style="edgeStyle=orthogonalEdgeStyle;rounded=0;orthogonalLoop=1;jettySize=auto;html=1;exitX=1;exitY=0.5;exitDx=0;exitDy=0;" edge="1" parent="WIyWlLk6GJQsqaUBKTNV-1" source="H3WDgLnWywmLZub_K2yU-0" target="H3WDgLnWywmLZub_K2yU-1">
          <mxGeometry relative="1" as="geometry" />
        </mxCell>
        <mxCell id="H3WDgLnWywmLZub_K2yU-35" style="edgeStyle=orthogonalEdgeStyle;rounded=0;orthogonalLoop=1;jettySize=auto;html=1;exitX=1;exitY=0.5;exitDx=0;exitDy=0;entryX=0;entryY=0.5;entryDx=0;entryDy=0;" edge="1" parent="WIyWlLk6GJQsqaUBKTNV-1" source="H3WDgLnWywmLZub_K2yU-0" target="H3WDgLnWywmLZub_K2yU-29">
          <mxGeometry relative="1" as="geometry" />
        </mxCell>
        <mxCell id="H3WDgLnWywmLZub_K2yU-53" style="edgeStyle=orthogonalEdgeStyle;rounded=0;orthogonalLoop=1;jettySize=auto;html=1;exitX=1;exitY=0.5;exitDx=0;exitDy=0;entryX=0;entryY=0.5;entryDx=0;entryDy=0;" edge="1" parent="WIyWlLk6GJQsqaUBKTNV-1" source="H3WDgLnWywmLZub_K2yU-0" target="H3WDgLnWywmLZub_K2yU-52">
          <mxGeometry relative="1" as="geometry" />
        </mxCell>
        <mxCell id="H3WDgLnWywmLZub_K2yU-0" value="master" style="rounded=0;whiteSpace=wrap;html=1;" vertex="1" parent="WIyWlLk6GJQsqaUBKTNV-1">
          <mxGeometry x="40" y="40" width="120" height="30" as="geometry" />
        </mxCell>
        <mxCell id="H3WDgLnWywmLZub_K2yU-15" style="edgeStyle=orthogonalEdgeStyle;rounded=0;orthogonalLoop=1;jettySize=auto;html=1;exitX=1;exitY=0.5;exitDx=0;exitDy=0;entryX=0;entryY=0.5;entryDx=0;entryDy=0;" edge="1" parent="WIyWlLk6GJQsqaUBKTNV-1" source="H3WDgLnWywmLZub_K2yU-1" target="H3WDgLnWywmLZub_K2yU-4">
          <mxGeometry relative="1" as="geometry" />
        </mxCell>
        <mxCell id="H3WDgLnWywmLZub_K2yU-16" style="edgeStyle=orthogonalEdgeStyle;rounded=0;orthogonalLoop=1;jettySize=auto;html=1;exitX=1;exitY=0.5;exitDx=0;exitDy=0;entryX=0;entryY=0.5;entryDx=0;entryDy=0;" edge="1" parent="WIyWlLk6GJQsqaUBKTNV-1" source="H3WDgLnWywmLZub_K2yU-1" target="H3WDgLnWywmLZub_K2yU-6">
          <mxGeometry relative="1" as="geometry" />
        </mxCell>
        <mxCell id="H3WDgLnWywmLZub_K2yU-1" value="relays" style="rounded=0;whiteSpace=wrap;html=1;" vertex="1" parent="WIyWlLk6GJQsqaUBKTNV-1">
          <mxGeometry x="200" y="40" width="120" height="30" as="geometry" />
        </mxCell>
        <mxCell id="H3WDgLnWywmLZub_K2yU-30" style="edgeStyle=orthogonalEdgeStyle;rounded=0;orthogonalLoop=1;jettySize=auto;html=1;exitX=1;exitY=0.5;exitDx=0;exitDy=0;" edge="1" parent="WIyWlLk6GJQsqaUBKTNV-1" source="H3WDgLnWywmLZub_K2yU-2" target="H3WDgLnWywmLZub_K2yU-19">
          <mxGeometry relative="1" as="geometry" />
        </mxCell>
        <mxCell id="H3WDgLnWywmLZub_K2yU-31" style="edgeStyle=orthogonalEdgeStyle;rounded=0;orthogonalLoop=1;jettySize=auto;html=1;exitX=1;exitY=0.5;exitDx=0;exitDy=0;entryX=0;entryY=0.5;entryDx=0;entryDy=0;" edge="1" parent="WIyWlLk6GJQsqaUBKTNV-1" source="H3WDgLnWywmLZub_K2yU-2" target="H3WDgLnWywmLZub_K2yU-20">
          <mxGeometry relative="1" as="geometry" />
        </mxCell>
        <mxCell id="H3WDgLnWywmLZub_K2yU-32" style="edgeStyle=orthogonalEdgeStyle;rounded=0;orthogonalLoop=1;jettySize=auto;html=1;exitX=1;exitY=0.5;exitDx=0;exitDy=0;entryX=0;entryY=0.5;entryDx=0;entryDy=0;" edge="1" parent="WIyWlLk6GJQsqaUBKTNV-1" source="H3WDgLnWywmLZub_K2yU-2" target="H3WDgLnWywmLZub_K2yU-21">
          <mxGeometry relative="1" as="geometry" />
        </mxCell>
        <mxCell id="H3WDgLnWywmLZub_K2yU-33" style="edgeStyle=orthogonalEdgeStyle;rounded=0;orthogonalLoop=1;jettySize=auto;html=1;exitX=1;exitY=0.5;exitDx=0;exitDy=0;entryX=0;entryY=0.5;entryDx=0;entryDy=0;" edge="1" parent="WIyWlLk6GJQsqaUBKTNV-1" source="H3WDgLnWywmLZub_K2yU-2" target="H3WDgLnWywmLZub_K2yU-28">
          <mxGeometry relative="1" as="geometry" />
        </mxCell>
        <mxCell id="H3WDgLnWywmLZub_K2yU-34" style="edgeStyle=orthogonalEdgeStyle;rounded=0;orthogonalLoop=1;jettySize=auto;html=1;exitX=1;exitY=0.5;exitDx=0;exitDy=0;entryX=0;entryY=0.5;entryDx=0;entryDy=0;" edge="1" parent="WIyWlLk6GJQsqaUBKTNV-1" source="H3WDgLnWywmLZub_K2yU-2" target="H3WDgLnWywmLZub_K2yU-27">
          <mxGeometry relative="1" as="geometry" />
        </mxCell>
        <mxCell id="H3WDgLnWywmLZub_K2yU-36" style="edgeStyle=orthogonalEdgeStyle;rounded=0;orthogonalLoop=1;jettySize=auto;html=1;exitX=1;exitY=0.5;exitDx=0;exitDy=0;entryX=0;entryY=0.5;entryDx=0;entryDy=0;" edge="1" parent="WIyWlLk6GJQsqaUBKTNV-1" source="H3WDgLnWywmLZub_K2yU-2" target="H3WDgLnWywmLZub_K2yU-26">
          <mxGeometry relative="1" as="geometry" />
        </mxCell>
        <mxCell id="H3WDgLnWywmLZub_K2yU-2" value="esp-module{{i}}" style="rounded=0;whiteSpace=wrap;html=1;" vertex="1" parent="WIyWlLk6GJQsqaUBKTNV-1">
          <mxGeometry x="520" y="930" width="120" height="30" as="geometry" />
        </mxCell>
        <mxCell id="H3WDgLnWywmLZub_K2yU-3" value="status" style="rounded=0;whiteSpace=wrap;html=1;fillColor=#f8cecc;strokeColor=#b85450;" vertex="1" parent="WIyWlLk6GJQsqaUBKTNV-1">
          <mxGeometry x="520" y="80" width="120" height="30" as="geometry" />
        </mxCell>
        <mxCell id="H3WDgLnWywmLZub_K2yU-4" value="precharge" style="rounded=0;whiteSpace=wrap;html=1;fillColor=#f8cecc;strokeColor=#b85450;" vertex="1" parent="WIyWlLk6GJQsqaUBKTNV-1">
          <mxGeometry x="360" y="120" width="120" height="30" as="geometry" />
        </mxCell>
        <mxCell id="H3WDgLnWywmLZub_K2yU-5" value="input" style="rounded=0;whiteSpace=wrap;html=1;fillColor=#f8cecc;strokeColor=#b85450;" vertex="1" parent="WIyWlLk6GJQsqaUBKTNV-1">
          <mxGeometry x="700" y="50" width="120" height="30" as="geometry" />
        </mxCell>
        <mxCell id="H3WDgLnWywmLZub_K2yU-11" style="edgeStyle=orthogonalEdgeStyle;rounded=0;orthogonalLoop=1;jettySize=auto;html=1;" edge="1" parent="WIyWlLk6GJQsqaUBKTNV-1" source="H3WDgLnWywmLZub_K2yU-6" target="H3WDgLnWywmLZub_K2yU-7">
          <mxGeometry relative="1" as="geometry" />
        </mxCell>
        <mxCell id="H3WDgLnWywmLZub_K2yU-12" style="edgeStyle=orthogonalEdgeStyle;rounded=0;orthogonalLoop=1;jettySize=auto;html=1;entryX=0;entryY=0.5;entryDx=0;entryDy=0;" edge="1" parent="WIyWlLk6GJQsqaUBKTNV-1" source="H3WDgLnWywmLZub_K2yU-6" target="H3WDgLnWywmLZub_K2yU-3">
          <mxGeometry relative="1" as="geometry" />
        </mxCell>
        <mxCell id="H3WDgLnWywmLZub_K2yU-6" value="{{relay_number}}&lt;br&gt;(on/off)" style="rounded=0;whiteSpace=wrap;html=1;fillColor=#d5e8d4;strokeColor=#82b366;" vertex="1" parent="WIyWlLk6GJQsqaUBKTNV-1">
          <mxGeometry x="360" y="40" width="120" height="30" as="geometry" />
        </mxCell>
        <mxCell id="H3WDgLnWywmLZub_K2yU-7" value="set (on/off)" style="rounded=0;whiteSpace=wrap;html=1;fillColor=#f8cecc;strokeColor=#b85450;" vertex="1" parent="WIyWlLk6GJQsqaUBKTNV-1">
          <mxGeometry x="520" y="40" width="120" height="30" as="geometry" />
        </mxCell>
        <mxCell id="H3WDgLnWywmLZub_K2yU-18" value="output" style="rounded=0;whiteSpace=wrap;html=1;fillColor=#d5e8d4;strokeColor=#82b366;" vertex="1" parent="WIyWlLk6GJQsqaUBKTNV-1">
          <mxGeometry x="700" y="10" width="120" height="30" as="geometry" />
        </mxCell>
        <mxCell id="H3WDgLnWywmLZub_K2yU-19" value="uptime_slave" style="rounded=0;whiteSpace=wrap;html=1;fillColor=#d5e8d4;strokeColor=#82b366;" vertex="1" parent="WIyWlLk6GJQsqaUBKTNV-1">
          <mxGeometry x="680" y="930" width="120" height="30" as="geometry" />
        </mxCell>
        <mxCell id="H3WDgLnWywmLZub_K2yU-20" value="cell_voltage" style="rounded=0;whiteSpace=wrap;html=1;fillColor=#d5e8d4;strokeColor=#82b366;" vertex="1" parent="WIyWlLk6GJQsqaUBKTNV-1">
          <mxGeometry x="680" y="970" width="120" height="30" as="geometry" />
        </mxCell>
        <mxCell id="H3WDgLnWywmLZub_K2yU-21" value="module_voltage" style="rounded=0;whiteSpace=wrap;html=1;fillColor=#d5e8d4;strokeColor=#82b366;" vertex="1" parent="WIyWlLk6GJQsqaUBKTNV-1">
          <mxGeometry x="680" y="1010" width="120" height="30" as="geometry" />
        </mxCell>
        <mxCell id="H3WDgLnWywmLZub_K2yU-51" style="edgeStyle=orthogonalEdgeStyle;rounded=0;orthogonalLoop=1;jettySize=auto;html=1;exitX=1;exitY=0.5;exitDx=0;exitDy=0;entryX=0;entryY=0.5;entryDx=0;entryDy=0;" edge="1" parent="WIyWlLk6GJQsqaUBKTNV-1" source="H3WDgLnWywmLZub_K2yU-24" target="H3WDgLnWywmLZub_K2yU-46">
          <mxGeometry relative="1" as="geometry" />
        </mxCell>
        <mxCell id="H3WDgLnWywmLZub_K2yU-24" value="module" style="rounded=0;whiteSpace=wrap;html=1;" vertex="1" parent="WIyWlLk6GJQsqaUBKTNV-1">
          <mxGeometry x="200" y="880" width="120" height="30" as="geometry" />
        </mxCell>
        <mxCell id="H3WDgLnWywmLZub_K2yU-25" value="voltage" style="rounded=0;whiteSpace=wrap;html=1;fillColor=#d5e8d4;strokeColor=#82b366;" vertex="1" parent="WIyWlLk6GJQsqaUBKTNV-1">
          <mxGeometry x="360" y="840" width="120" height="30" as="geometry" />
        </mxCell>
        <mxCell id="H3WDgLnWywmLZub_K2yU-26" value="timediff" style="rounded=0;whiteSpace=wrap;html=1;fillColor=#d5e8d4;strokeColor=#82b366;" vertex="1" parent="WIyWlLk6GJQsqaUBKTNV-1">
          <mxGeometry x="680" y="1130" width="120" height="30" as="geometry" />
        </mxCell>
        <mxCell id="H3WDgLnWywmLZub_K2yU-27" value="chip_temp" style="rounded=0;whiteSpace=wrap;html=1;fillColor=#d5e8d4;strokeColor=#82b366;" vertex="1" parent="WIyWlLk6GJQsqaUBKTNV-1">
          <mxGeometry x="680" y="1090" width="120" height="30" as="geometry" />
        </mxCell>
        <mxCell id="H3WDgLnWywmLZub_K2yU-28" value="module_temps" style="rounded=0;whiteSpace=wrap;html=1;fillColor=#d5e8d4;strokeColor=#82b366;" vertex="1" parent="WIyWlLk6GJQsqaUBKTNV-1">
          <mxGeometry x="680" y="1050" width="120" height="30" as="geometry" />
        </mxCell>
        <mxCell id="H3WDgLnWywmLZub_K2yU-29" value="uptime&lt;br&gt;(unix_timestamp ms)" style="rounded=0;whiteSpace=wrap;html=1;fillColor=#d5e8d4;strokeColor=#82b366;" vertex="1" parent="WIyWlLk6GJQsqaUBKTNV-1">
          <mxGeometry x="200" y="160" width="120" height="30" as="geometry" />
        </mxCell>
        <mxCell id="H3WDgLnWywmLZub_K2yU-37" style="edgeStyle=orthogonalEdgeStyle;rounded=0;orthogonalLoop=1;jettySize=auto;html=1;exitX=1;exitY=0.5;exitDx=0;exitDy=0;" edge="1" parent="WIyWlLk6GJQsqaUBKTNV-1" source="H3WDgLnWywmLZub_K2yU-43" target="H3WDgLnWywmLZub_K2yU-44">
          <mxGeometry relative="1" as="geometry" />
        </mxCell>
        <mxCell id="H3WDgLnWywmLZub_K2yU-39" style="edgeStyle=orthogonalEdgeStyle;rounded=0;orthogonalLoop=1;jettySize=auto;html=1;exitX=1;exitY=0.5;exitDx=0;exitDy=0;entryX=0;entryY=0.5;entryDx=0;entryDy=0;" edge="1" parent="WIyWlLk6GJQsqaUBKTNV-1" source="H3WDgLnWywmLZub_K2yU-43" target="H3WDgLnWywmLZub_K2yU-24">
          <mxGeometry relative="1" as="geometry" />
        </mxCell>
        <mxCell id="H3WDgLnWywmLZub_K2yU-40" style="edgeStyle=orthogonalEdgeStyle;rounded=0;orthogonalLoop=1;jettySize=auto;html=1;exitX=1;exitY=0.5;exitDx=0;exitDy=0;entryX=0;entryY=0.5;entryDx=0;entryDy=0;" edge="1" parent="WIyWlLk6GJQsqaUBKTNV-1" source="H3WDgLnWywmLZub_K2yU-24" target="H3WDgLnWywmLZub_K2yU-49">
          <mxGeometry relative="1" as="geometry" />
        </mxCell>
        <mxCell id="H3WDgLnWywmLZub_K2yU-41" style="edgeStyle=orthogonalEdgeStyle;rounded=0;orthogonalLoop=1;jettySize=auto;html=1;exitX=1;exitY=0.5;exitDx=0;exitDy=0;entryX=0;entryY=0.5;entryDx=0;entryDy=0;" edge="1" parent="WIyWlLk6GJQsqaUBKTNV-1" source="H3WDgLnWywmLZub_K2yU-43" target="H3WDgLnWywmLZub_K2yU-48">
          <mxGeometry relative="1" as="geometry" />
        </mxCell>
        <mxCell id="H3WDgLnWywmLZub_K2yU-42" style="edgeStyle=orthogonalEdgeStyle;rounded=0;orthogonalLoop=1;jettySize=auto;html=1;exitX=1;exitY=0.5;exitDx=0;exitDy=0;entryX=0;entryY=0.5;entryDx=0;entryDy=0;" edge="1" parent="WIyWlLk6GJQsqaUBKTNV-1" source="H3WDgLnWywmLZub_K2yU-43" target="H3WDgLnWywmLZub_K2yU-47">
          <mxGeometry relative="1" as="geometry" />
        </mxCell>
        <mxCell id="H3WDgLnWywmLZub_K2yU-122" style="edgeStyle=orthogonalEdgeStyle;rounded=0;orthogonalLoop=1;jettySize=auto;html=1;exitX=1;exitY=0.5;exitDx=0;exitDy=0;entryX=0;entryY=0.5;entryDx=0;entryDy=0;" edge="1" parent="WIyWlLk6GJQsqaUBKTNV-1" source="H3WDgLnWywmLZub_K2yU-43" target="H3WDgLnWywmLZub_K2yU-120">
          <mxGeometry relative="1" as="geometry" />
        </mxCell>
        <mxCell id="H3WDgLnWywmLZub_K2yU-43" value="esp-module{{i}}" style="rounded=0;whiteSpace=wrap;html=1;" vertex="1" parent="WIyWlLk6GJQsqaUBKTNV-1">
          <mxGeometry x="40" y="760" width="120" height="30" as="geometry" />
        </mxCell>
        <mxCell id="H3WDgLnWywmLZub_K2yU-44" value="uptime" style="rounded=0;whiteSpace=wrap;html=1;fillColor=#d5e8d4;strokeColor=#82b366;" vertex="1" parent="WIyWlLk6GJQsqaUBKTNV-1">
          <mxGeometry x="200" y="760" width="120" height="30" as="geometry" />
        </mxCell>
        <mxCell id="H3WDgLnWywmLZub_K2yU-46" value="voltage" style="rounded=0;whiteSpace=wrap;html=1;fillColor=#d5e8d4;strokeColor=#82b366;" vertex="1" parent="WIyWlLk6GJQsqaUBKTNV-1">
          <mxGeometry x="360" y="880" width="120" height="30" as="geometry" />
        </mxCell>
        <mxCell id="H3WDgLnWywmLZub_K2yU-47" value="timediff" style="rounded=0;whiteSpace=wrap;html=1;fillColor=#d5e8d4;strokeColor=#82b366;" vertex="1" parent="WIyWlLk6GJQsqaUBKTNV-1">
          <mxGeometry x="200" y="1000" width="120" height="30" as="geometry" />
        </mxCell>
        <mxCell id="H3WDgLnWywmLZub_K2yU-48" value="chip_temp" style="rounded=0;whiteSpace=wrap;html=1;fillColor=#d5e8d4;strokeColor=#82b366;" vertex="1" parent="WIyWlLk6GJQsqaUBKTNV-1">
          <mxGeometry x="200" y="960" width="120" height="30" as="geometry" />
        </mxCell>
        <mxCell id="H3WDgLnWywmLZub_K2yU-49" value="temps" style="rounded=0;whiteSpace=wrap;html=1;fillColor=#d5e8d4;strokeColor=#82b366;" vertex="1" parent="WIyWlLk6GJQsqaUBKTNV-1">
          <mxGeometry x="360" y="920" width="120" height="30" as="geometry" />
        </mxCell>
        <mxCell id="H3WDgLnWywmLZub_K2yU-66" value="" style="edgeStyle=orthogonalEdgeStyle;rounded=0;orthogonalLoop=1;jettySize=auto;html=1;" edge="1" parent="WIyWlLk6GJQsqaUBKTNV-1" source="H3WDgLnWywmLZub_K2yU-52" target="H3WDgLnWywmLZub_K2yU-54">
          <mxGeometry relative="1" as="geometry" />
        </mxCell>
        <mxCell id="H3WDgLnWywmLZub_K2yU-71" style="edgeStyle=orthogonalEdgeStyle;rounded=0;orthogonalLoop=1;jettySize=auto;html=1;exitX=1;exitY=0.5;exitDx=0;exitDy=0;entryX=0;entryY=0.5;entryDx=0;entryDy=0;" edge="1" parent="WIyWlLk6GJQsqaUBKTNV-1" source="H3WDgLnWywmLZub_K2yU-52" target="H3WDgLnWywmLZub_K2yU-61">
          <mxGeometry relative="1" as="geometry" />
        </mxCell>
        <mxCell id="H3WDgLnWywmLZub_K2yU-119" style="edgeStyle=orthogonalEdgeStyle;rounded=0;orthogonalLoop=1;jettySize=auto;html=1;exitX=1;exitY=0.5;exitDx=0;exitDy=0;entryX=0;entryY=0.5;entryDx=0;entryDy=0;" edge="1" parent="WIyWlLk6GJQsqaUBKTNV-1" source="H3WDgLnWywmLZub_K2yU-52" target="H3WDgLnWywmLZub_K2yU-112">
          <mxGeometry relative="1" as="geometry" />
        </mxCell>
        <mxCell id="H3WDgLnWywmLZub_K2yU-52" value="can&lt;br&gt;(running/stopped)" style="rounded=0;whiteSpace=wrap;html=1;fillColor=#d5e8d4;strokeColor=#82b366;" vertex="1" parent="WIyWlLk6GJQsqaUBKTNV-1">
          <mxGeometry x="200" y="200" width="120" height="30" as="geometry" />
        </mxCell>
        <mxCell id="H3WDgLnWywmLZub_K2yU-65" value="" style="edgeStyle=orthogonalEdgeStyle;rounded=0;orthogonalLoop=1;jettySize=auto;html=1;entryX=0;entryY=0.5;entryDx=0;entryDy=0;" edge="1" parent="WIyWlLk6GJQsqaUBKTNV-1" source="H3WDgLnWywmLZub_K2yU-54" target="H3WDgLnWywmLZub_K2yU-56">
          <mxGeometry relative="1" as="geometry">
            <mxPoint x="520" y="215" as="targetPoint" />
          </mxGeometry>
        </mxCell>
        <mxCell id="H3WDgLnWywmLZub_K2yU-100" style="edgeStyle=orthogonalEdgeStyle;rounded=0;orthogonalLoop=1;jettySize=auto;html=1;exitX=1;exitY=0.5;exitDx=0;exitDy=0;entryX=0;entryY=0.5;entryDx=0;entryDy=0;" edge="1" parent="WIyWlLk6GJQsqaUBKTNV-1" source="H3WDgLnWywmLZub_K2yU-54" target="H3WDgLnWywmLZub_K2yU-57">
          <mxGeometry relative="1" as="geometry" />
        </mxCell>
        <mxCell id="H3WDgLnWywmLZub_K2yU-103" style="edgeStyle=orthogonalEdgeStyle;rounded=0;orthogonalLoop=1;jettySize=auto;html=1;exitX=1;exitY=0.5;exitDx=0;exitDy=0;entryX=0;entryY=0.5;entryDx=0;entryDy=0;" edge="1" parent="WIyWlLk6GJQsqaUBKTNV-1" source="H3WDgLnWywmLZub_K2yU-54" target="H3WDgLnWywmLZub_K2yU-59">
          <mxGeometry relative="1" as="geometry" />
        </mxCell>
        <mxCell id="H3WDgLnWywmLZub_K2yU-104" style="edgeStyle=orthogonalEdgeStyle;rounded=0;orthogonalLoop=1;jettySize=auto;html=1;exitX=1;exitY=0.5;exitDx=0;exitDy=0;entryX=0;entryY=0.5;entryDx=0;entryDy=0;" edge="1" parent="WIyWlLk6GJQsqaUBKTNV-1" source="H3WDgLnWywmLZub_K2yU-54" target="H3WDgLnWywmLZub_K2yU-60">
          <mxGeometry relative="1" as="geometry" />
        </mxCell>
        <mxCell id="H3WDgLnWywmLZub_K2yU-54" value="limits" style="rounded=0;whiteSpace=wrap;html=1;" vertex="1" parent="WIyWlLk6GJQsqaUBKTNV-1">
          <mxGeometry x="360" y="200" width="120" height="30" as="geometry" />
        </mxCell>
        <mxCell id="H3WDgLnWywmLZub_K2yU-83" value="" style="edgeStyle=orthogonalEdgeStyle;rounded=0;orthogonalLoop=1;jettySize=auto;html=1;entryX=0;entryY=0.5;entryDx=0;entryDy=0;" edge="1" parent="WIyWlLk6GJQsqaUBKTNV-1" source="H3WDgLnWywmLZub_K2yU-56" target="H3WDgLnWywmLZub_K2yU-81">
          <mxGeometry relative="1" as="geometry" />
        </mxCell>
        <mxCell id="H3WDgLnWywmLZub_K2yU-56" value="max_voltage" style="rounded=0;whiteSpace=wrap;html=1;fillColor=#d5e8d4;strokeColor=#82b366;" vertex="1" parent="WIyWlLk6GJQsqaUBKTNV-1">
          <mxGeometry x="520" y="200" width="120" height="30" as="geometry" />
        </mxCell>
        <mxCell id="H3WDgLnWywmLZub_K2yU-84" value="" style="edgeStyle=orthogonalEdgeStyle;rounded=0;orthogonalLoop=1;jettySize=auto;html=1;" edge="1" parent="WIyWlLk6GJQsqaUBKTNV-1" source="H3WDgLnWywmLZub_K2yU-57" target="H3WDgLnWywmLZub_K2yU-82">
          <mxGeometry relative="1" as="geometry" />
        </mxCell>
        <mxCell id="H3WDgLnWywmLZub_K2yU-57" value="min_voltage" style="rounded=0;whiteSpace=wrap;html=1;fillColor=#d5e8d4;strokeColor=#82b366;" vertex="1" parent="WIyWlLk6GJQsqaUBKTNV-1">
          <mxGeometry x="520" y="240" width="120" height="30" as="geometry" />
        </mxCell>
        <mxCell id="H3WDgLnWywmLZub_K2yU-86" value="" style="edgeStyle=orthogonalEdgeStyle;rounded=0;orthogonalLoop=1;jettySize=auto;html=1;" edge="1" parent="WIyWlLk6GJQsqaUBKTNV-1" source="H3WDgLnWywmLZub_K2yU-59" target="H3WDgLnWywmLZub_K2yU-85">
          <mxGeometry relative="1" as="geometry" />
        </mxCell>
        <mxCell id="H3WDgLnWywmLZub_K2yU-59" value="max_charge_current" style="rounded=0;whiteSpace=wrap;html=1;fillColor=#d5e8d4;strokeColor=#82b366;" vertex="1" parent="WIyWlLk6GJQsqaUBKTNV-1">
          <mxGeometry x="520" y="280" width="120" height="30" as="geometry" />
        </mxCell>
        <mxCell id="H3WDgLnWywmLZub_K2yU-88" value="" style="edgeStyle=orthogonalEdgeStyle;rounded=0;orthogonalLoop=1;jettySize=auto;html=1;" edge="1" parent="WIyWlLk6GJQsqaUBKTNV-1" source="H3WDgLnWywmLZub_K2yU-60" target="H3WDgLnWywmLZub_K2yU-87">
          <mxGeometry relative="1" as="geometry" />
        </mxCell>
        <mxCell id="H3WDgLnWywmLZub_K2yU-60" value="max_discharge&lt;br&gt;_current" style="rounded=0;whiteSpace=wrap;html=1;fillColor=#d5e8d4;strokeColor=#82b366;" vertex="1" parent="WIyWlLk6GJQsqaUBKTNV-1">
          <mxGeometry x="520" y="320" width="120" height="30" as="geometry" />
        </mxCell>
        <mxCell id="H3WDgLnWywmLZub_K2yU-64" value="" style="edgeStyle=orthogonalEdgeStyle;rounded=0;orthogonalLoop=1;jettySize=auto;html=1;" edge="1" parent="WIyWlLk6GJQsqaUBKTNV-1" source="H3WDgLnWywmLZub_K2yU-61" target="H3WDgLnWywmLZub_K2yU-62">
          <mxGeometry relative="1" as="geometry" />
        </mxCell>
        <mxCell id="H3WDgLnWywmLZub_K2yU-74" style="edgeStyle=orthogonalEdgeStyle;rounded=0;orthogonalLoop=1;jettySize=auto;html=1;exitX=1;exitY=0.5;exitDx=0;exitDy=0;entryX=0;entryY=0.5;entryDx=0;entryDy=0;" edge="1" parent="WIyWlLk6GJQsqaUBKTNV-1" source="H3WDgLnWywmLZub_K2yU-61" target="H3WDgLnWywmLZub_K2yU-73">
          <mxGeometry relative="1" as="geometry" />
        </mxCell>
        <mxCell id="H3WDgLnWywmLZub_K2yU-78" style="edgeStyle=orthogonalEdgeStyle;rounded=0;orthogonalLoop=1;jettySize=auto;html=1;exitX=1;exitY=0.5;exitDx=0;exitDy=0;entryX=0;entryY=0.5;entryDx=0;entryDy=0;" edge="1" parent="WIyWlLk6GJQsqaUBKTNV-1" source="H3WDgLnWywmLZub_K2yU-61" target="H3WDgLnWywmLZub_K2yU-76">
          <mxGeometry relative="1" as="geometry" />
        </mxCell>
        <mxCell id="H3WDgLnWywmLZub_K2yU-79" style="edgeStyle=orthogonalEdgeStyle;rounded=0;orthogonalLoop=1;jettySize=auto;html=1;exitX=1;exitY=0.5;exitDx=0;exitDy=0;entryX=0;entryY=0.5;entryDx=0;entryDy=0;" edge="1" parent="WIyWlLk6GJQsqaUBKTNV-1" source="H3WDgLnWywmLZub_K2yU-61" target="H3WDgLnWywmLZub_K2yU-77">
          <mxGeometry relative="1" as="geometry" />
        </mxCell>
        <mxCell id="H3WDgLnWywmLZub_K2yU-80" style="edgeStyle=orthogonalEdgeStyle;rounded=0;orthogonalLoop=1;jettySize=auto;html=1;exitX=1;exitY=0.5;exitDx=0;exitDy=0;entryX=0;entryY=0.5;entryDx=0;entryDy=0;" edge="1" parent="WIyWlLk6GJQsqaUBKTNV-1" source="H3WDgLnWywmLZub_K2yU-61" target="H3WDgLnWywmLZub_K2yU-75">
          <mxGeometry relative="1" as="geometry" />
        </mxCell>
        <mxCell id="H3WDgLnWywmLZub_K2yU-110" style="edgeStyle=orthogonalEdgeStyle;rounded=0;orthogonalLoop=1;jettySize=auto;html=1;entryX=0;entryY=0.5;entryDx=0;entryDy=0;" edge="1" parent="WIyWlLk6GJQsqaUBKTNV-1" source="H3WDgLnWywmLZub_K2yU-61" target="H3WDgLnWywmLZub_K2yU-99">
          <mxGeometry relative="1" as="geometry" />
        </mxCell>
        <mxCell id="H3WDgLnWywmLZub_K2yU-111" style="edgeStyle=orthogonalEdgeStyle;rounded=0;orthogonalLoop=1;jettySize=auto;html=1;exitX=1;exitY=0.5;exitDx=0;exitDy=0;entryX=0;entryY=0.5;entryDx=0;entryDy=0;" edge="1" parent="WIyWlLk6GJQsqaUBKTNV-1" source="H3WDgLnWywmLZub_K2yU-61" target="H3WDgLnWywmLZub_K2yU-105">
          <mxGeometry relative="1" as="geometry" />
        </mxCell>
        <mxCell id="H3WDgLnWywmLZub_K2yU-61" value="battery" style="rounded=0;whiteSpace=wrap;html=1;" vertex="1" parent="WIyWlLk6GJQsqaUBKTNV-1">
          <mxGeometry x="360" y="360" width="120" height="30" as="geometry" />
        </mxCell>
        <mxCell id="H3WDgLnWywmLZub_K2yU-90" value="" style="edgeStyle=orthogonalEdgeStyle;rounded=0;orthogonalLoop=1;jettySize=auto;html=1;" edge="1" parent="WIyWlLk6GJQsqaUBKTNV-1" source="H3WDgLnWywmLZub_K2yU-62" target="H3WDgLnWywmLZub_K2yU-89">
          <mxGeometry relative="1" as="geometry" />
        </mxCell>
        <mxCell id="H3WDgLnWywmLZub_K2yU-62" value="soc" style="rounded=0;whiteSpace=wrap;html=1;fillColor=#d5e8d4;strokeColor=#82b366;" vertex="1" parent="WIyWlLk6GJQsqaUBKTNV-1">
          <mxGeometry x="520" y="360" width="120" height="30" as="geometry" />
        </mxCell>
        <mxCell id="H3WDgLnWywmLZub_K2yU-92" value="" style="edgeStyle=orthogonalEdgeStyle;rounded=0;orthogonalLoop=1;jettySize=auto;html=1;" edge="1" parent="WIyWlLk6GJQsqaUBKTNV-1" source="H3WDgLnWywmLZub_K2yU-73" target="H3WDgLnWywmLZub_K2yU-91">
          <mxGeometry relative="1" as="geometry" />
        </mxCell>
        <mxCell id="H3WDgLnWywmLZub_K2yU-73" value="soh" style="rounded=0;whiteSpace=wrap;html=1;fillColor=#d5e8d4;strokeColor=#82b366;" vertex="1" parent="WIyWlLk6GJQsqaUBKTNV-1">
          <mxGeometry x="520" y="400" width="120" height="30" as="geometry" />
        </mxCell>
        <mxCell id="H3WDgLnWywmLZub_K2yU-94" value="" style="edgeStyle=orthogonalEdgeStyle;rounded=0;orthogonalLoop=1;jettySize=auto;html=1;" edge="1" parent="WIyWlLk6GJQsqaUBKTNV-1" source="H3WDgLnWywmLZub_K2yU-75" target="H3WDgLnWywmLZub_K2yU-93">
          <mxGeometry relative="1" as="geometry" />
        </mxCell>
        <mxCell id="H3WDgLnWywmLZub_K2yU-75" value="voltage" style="rounded=0;whiteSpace=wrap;html=1;fillColor=#d5e8d4;strokeColor=#82b366;" vertex="1" parent="WIyWlLk6GJQsqaUBKTNV-1">
          <mxGeometry x="520" y="440" width="120" height="30" as="geometry" />
        </mxCell>
        <mxCell id="H3WDgLnWywmLZub_K2yU-96" value="" style="edgeStyle=orthogonalEdgeStyle;rounded=0;orthogonalLoop=1;jettySize=auto;html=1;" edge="1" parent="WIyWlLk6GJQsqaUBKTNV-1" source="H3WDgLnWywmLZub_K2yU-76" target="H3WDgLnWywmLZub_K2yU-95">
          <mxGeometry relative="1" as="geometry" />
        </mxCell>
        <mxCell id="H3WDgLnWywmLZub_K2yU-76" value="current" style="rounded=0;whiteSpace=wrap;html=1;fillColor=#d5e8d4;strokeColor=#82b366;" vertex="1" parent="WIyWlLk6GJQsqaUBKTNV-1">
          <mxGeometry x="520" y="480" width="120" height="30" as="geometry" />
        </mxCell>
        <mxCell id="H3WDgLnWywmLZub_K2yU-98" value="" style="edgeStyle=orthogonalEdgeStyle;rounded=0;orthogonalLoop=1;jettySize=auto;html=1;" edge="1" parent="WIyWlLk6GJQsqaUBKTNV-1" source="H3WDgLnWywmLZub_K2yU-77" target="H3WDgLnWywmLZub_K2yU-97">
          <mxGeometry relative="1" as="geometry" />
        </mxCell>
        <mxCell id="H3WDgLnWywmLZub_K2yU-77" value="temp" style="rounded=0;whiteSpace=wrap;html=1;fillColor=#d5e8d4;strokeColor=#82b366;" vertex="1" parent="WIyWlLk6GJQsqaUBKTNV-1">
          <mxGeometry x="520" y="520" width="120" height="30" as="geometry" />
        </mxCell>
        <mxCell id="H3WDgLnWywmLZub_K2yU-81" value="set" style="rounded=0;whiteSpace=wrap;html=1;fillColor=#f8cecc;strokeColor=#b85450;" vertex="1" parent="WIyWlLk6GJQsqaUBKTNV-1">
          <mxGeometry x="680" y="200" width="120" height="30" as="geometry" />
        </mxCell>
        <mxCell id="H3WDgLnWywmLZub_K2yU-82" value="set" style="rounded=0;whiteSpace=wrap;html=1;fillColor=#f8cecc;strokeColor=#b85450;" vertex="1" parent="WIyWlLk6GJQsqaUBKTNV-1">
          <mxGeometry x="680" y="240" width="120" height="30" as="geometry" />
        </mxCell>
        <mxCell id="H3WDgLnWywmLZub_K2yU-85" value="set" style="rounded=0;whiteSpace=wrap;html=1;fillColor=#f8cecc;strokeColor=#b85450;" vertex="1" parent="WIyWlLk6GJQsqaUBKTNV-1">
          <mxGeometry x="680" y="280" width="120" height="30" as="geometry" />
        </mxCell>
        <mxCell id="H3WDgLnWywmLZub_K2yU-87" value="set" style="rounded=0;whiteSpace=wrap;html=1;fillColor=#f8cecc;strokeColor=#b85450;" vertex="1" parent="WIyWlLk6GJQsqaUBKTNV-1">
          <mxGeometry x="680" y="320" width="120" height="30" as="geometry" />
        </mxCell>
        <mxCell id="H3WDgLnWywmLZub_K2yU-89" value="set" style="rounded=0;whiteSpace=wrap;html=1;fillColor=#f8cecc;strokeColor=#b85450;" vertex="1" parent="WIyWlLk6GJQsqaUBKTNV-1">
          <mxGeometry x="680" y="360" width="120" height="30" as="geometry" />
        </mxCell>
        <mxCell id="H3WDgLnWywmLZub_K2yU-91" value="set" style="rounded=0;whiteSpace=wrap;html=1;fillColor=#f8cecc;strokeColor=#b85450;" vertex="1" parent="WIyWlLk6GJQsqaUBKTNV-1">
          <mxGeometry x="680" y="400" width="120" height="30" as="geometry" />
        </mxCell>
        <mxCell id="H3WDgLnWywmLZub_K2yU-93" value="set" style="rounded=0;whiteSpace=wrap;html=1;fillColor=#f8cecc;strokeColor=#b85450;" vertex="1" parent="WIyWlLk6GJQsqaUBKTNV-1">
          <mxGeometry x="680" y="440" width="120" height="30" as="geometry" />
        </mxCell>
        <mxCell id="H3WDgLnWywmLZub_K2yU-95" value="set" style="rounded=0;whiteSpace=wrap;html=1;fillColor=#f8cecc;strokeColor=#b85450;" vertex="1" parent="WIyWlLk6GJQsqaUBKTNV-1">
          <mxGeometry x="680" y="480" width="120" height="30" as="geometry" />
        </mxCell>
        <mxCell id="H3WDgLnWywmLZub_K2yU-97" value="set" style="rounded=0;whiteSpace=wrap;html=1;fillColor=#f8cecc;strokeColor=#b85450;" vertex="1" parent="WIyWlLk6GJQsqaUBKTNV-1">
          <mxGeometry x="680" y="520" width="120" height="30" as="geometry" />
        </mxCell>
        <mxCell id="H3WDgLnWywmLZub_K2yU-108" value="" style="edgeStyle=orthogonalEdgeStyle;rounded=0;orthogonalLoop=1;jettySize=auto;html=1;entryX=0;entryY=0.5;entryDx=0;entryDy=0;" edge="1" parent="WIyWlLk6GJQsqaUBKTNV-1" source="H3WDgLnWywmLZub_K2yU-99" target="H3WDgLnWywmLZub_K2yU-106">
          <mxGeometry relative="1" as="geometry" />
        </mxCell>
        <mxCell id="H3WDgLnWywmLZub_K2yU-99" value="max_cell_temp" style="rounded=0;whiteSpace=wrap;html=1;fillColor=#d5e8d4;strokeColor=#82b366;" vertex="1" parent="WIyWlLk6GJQsqaUBKTNV-1">
          <mxGeometry x="520" y="560" width="120" height="30" as="geometry" />
        </mxCell>
        <mxCell id="H3WDgLnWywmLZub_K2yU-109" value="" style="edgeStyle=orthogonalEdgeStyle;rounded=0;orthogonalLoop=1;jettySize=auto;html=1;" edge="1" parent="WIyWlLk6GJQsqaUBKTNV-1" source="H3WDgLnWywmLZub_K2yU-105" target="H3WDgLnWywmLZub_K2yU-107">
          <mxGeometry relative="1" as="geometry" />
        </mxCell>
        <mxCell id="H3WDgLnWywmLZub_K2yU-105" value="min_cell_temp" style="rounded=0;whiteSpace=wrap;html=1;fillColor=#d5e8d4;strokeColor=#82b366;" vertex="1" parent="WIyWlLk6GJQsqaUBKTNV-1">
          <mxGeometry x="520" y="600" width="120" height="30" as="geometry" />
        </mxCell>
        <mxCell id="H3WDgLnWywmLZub_K2yU-106" value="set" style="rounded=0;whiteSpace=wrap;html=1;fillColor=#f8cecc;strokeColor=#b85450;" vertex="1" parent="WIyWlLk6GJQsqaUBKTNV-1">
          <mxGeometry x="680" y="560" width="120" height="30" as="geometry" />
        </mxCell>
        <mxCell id="H3WDgLnWywmLZub_K2yU-107" value="set" style="rounded=0;whiteSpace=wrap;html=1;fillColor=#f8cecc;strokeColor=#b85450;" vertex="1" parent="WIyWlLk6GJQsqaUBKTNV-1">
          <mxGeometry x="680" y="600" width="120" height="30" as="geometry" />
        </mxCell>
        <mxCell id="H3WDgLnWywmLZub_K2yU-116" style="edgeStyle=orthogonalEdgeStyle;rounded=0;orthogonalLoop=1;jettySize=auto;html=1;exitX=1;exitY=0.5;exitDx=0;exitDy=0;entryX=0;entryY=0.5;entryDx=0;entryDy=0;" edge="1" parent="WIyWlLk6GJQsqaUBKTNV-1" source="H3WDgLnWywmLZub_K2yU-112" target="H3WDgLnWywmLZub_K2yU-113">
          <mxGeometry relative="1" as="geometry" />
        </mxCell>
        <mxCell id="H3WDgLnWywmLZub_K2yU-117" style="edgeStyle=orthogonalEdgeStyle;rounded=0;orthogonalLoop=1;jettySize=auto;html=1;exitX=1;exitY=0.5;exitDx=0;exitDy=0;entryX=0;entryY=0.5;entryDx=0;entryDy=0;" edge="1" parent="WIyWlLk6GJQsqaUBKTNV-1" source="H3WDgLnWywmLZub_K2yU-112" target="H3WDgLnWywmLZub_K2yU-114">
          <mxGeometry relative="1" as="geometry" />
        </mxCell>
        <mxCell id="H3WDgLnWywmLZub_K2yU-118" style="edgeStyle=orthogonalEdgeStyle;rounded=0;orthogonalLoop=1;jettySize=auto;html=1;exitX=1;exitY=0.5;exitDx=0;exitDy=0;entryX=0;entryY=0.5;entryDx=0;entryDy=0;" edge="1" parent="WIyWlLk6GJQsqaUBKTNV-1" source="H3WDgLnWywmLZub_K2yU-112" target="H3WDgLnWywmLZub_K2yU-115">
          <mxGeometry relative="1" as="geometry" />
        </mxCell>
        <mxCell id="H3WDgLnWywmLZub_K2yU-112" value="inverter" style="rounded=0;whiteSpace=wrap;html=1;" vertex="1" parent="WIyWlLk6GJQsqaUBKTNV-1">
          <mxGeometry x="360" y="640" width="120" height="30" as="geometry" />
        </mxCell>
        <mxCell id="H3WDgLnWywmLZub_K2yU-113" value="timestamp" style="rounded=0;whiteSpace=wrap;html=1;fillColor=#d5e8d4;strokeColor=#82b366;" vertex="1" parent="WIyWlLk6GJQsqaUBKTNV-1">
          <mxGeometry x="520" y="640" width="120" height="30" as="geometry" />
        </mxCell>
        <mxCell id="H3WDgLnWywmLZub_K2yU-114" value="battery_voltage" style="rounded=0;whiteSpace=wrap;html=1;fillColor=#d5e8d4;strokeColor=#82b366;" vertex="1" parent="WIyWlLk6GJQsqaUBKTNV-1">
          <mxGeometry x="520" y="680" width="120" height="30" as="geometry" />
        </mxCell>
        <mxCell id="H3WDgLnWywmLZub_K2yU-115" value="soc" style="rounded=0;whiteSpace=wrap;html=1;fillColor=#d5e8d4;strokeColor=#82b366;" vertex="1" parent="WIyWlLk6GJQsqaUBKTNV-1">
          <mxGeometry x="520" y="720" width="120" height="30" as="geometry" />
        </mxCell>
        <mxCell id="H3WDgLnWywmLZub_K2yU-123" style="edgeStyle=orthogonalEdgeStyle;rounded=0;orthogonalLoop=1;jettySize=auto;html=1;exitX=1;exitY=0.5;exitDx=0;exitDy=0;entryX=0;entryY=0.5;entryDx=0;entryDy=0;" edge="1" parent="WIyWlLk6GJQsqaUBKTNV-1" source="H3WDgLnWywmLZub_K2yU-120" target="H3WDgLnWywmLZub_K2yU-121">
          <mxGeometry relative="1" as="geometry" />
        </mxCell>
        <mxCell id="H3WDgLnWywmLZub_K2yU-124" style="edgeStyle=orthogonalEdgeStyle;rounded=0;orthogonalLoop=1;jettySize=auto;html=1;exitX=1;exitY=0.5;exitDx=0;exitDy=0;entryX=0;entryY=0.5;entryDx=0;entryDy=0;" edge="1" parent="WIyWlLk6GJQsqaUBKTNV-1" source="H3WDgLnWywmLZub_K2yU-120" target="H3WDgLnWywmLZub_K2yU-25">
          <mxGeometry relative="1" as="geometry" />
        </mxCell>
        <mxCell id="H3WDgLnWywmLZub_K2yU-120" value="cell{{i}}" style="rounded=0;whiteSpace=wrap;html=1;" vertex="1" parent="WIyWlLk6GJQsqaUBKTNV-1">
          <mxGeometry x="200" y="800" width="120" height="30" as="geometry" />
        </mxCell>
        <mxCell id="H3WDgLnWywmLZub_K2yU-126" style="edgeStyle=orthogonalEdgeStyle;rounded=0;orthogonalLoop=1;jettySize=auto;html=1;exitX=1;exitY=0.5;exitDx=0;exitDy=0;entryX=0;entryY=0.5;entryDx=0;entryDy=0;" edge="1" parent="WIyWlLk6GJQsqaUBKTNV-1" source="H3WDgLnWywmLZub_K2yU-121" target="H3WDgLnWywmLZub_K2yU-125">
          <mxGeometry relative="1" as="geometry" />
        </mxCell>
        <mxCell id="H3WDgLnWywmLZub_K2yU-121" value="balance&lt;br&gt;(balancing/stop)" style="rounded=0;whiteSpace=wrap;html=1;fillColor=#d5e8d4;strokeColor=#82b366;" vertex="1" parent="WIyWlLk6GJQsqaUBKTNV-1">
          <mxGeometry x="360" y="800" width="120" height="30" as="geometry" />
        </mxCell>
        <mxCell id="H3WDgLnWywmLZub_K2yU-125" value="set&lt;br&gt;(balance_time in ms)" style="rounded=0;whiteSpace=wrap;html=1;fillColor=#f8cecc;strokeColor=#b85450;" vertex="1" parent="WIyWlLk6GJQsqaUBKTNV-1">
          <mxGeometry x="520" y="800" width="120" height="30" as="geometry" />
        </mxCell>
      </root>
    </mxGraphModel>
  </diagram>
</mxfile>
